<svg version="1.1" xmlns="http://www.w3.org/2000/svg" xmlns:xlink="http://www.w3.org/1999/xlink" width="1004" height="835"><defs></defs><g><g transform="translate(-118,-22) scale(1,1)"><path fill="#C0C0C0" stroke="none" d="M 383 49 L 1100 49 L 1100 342 L 383 342" opacity="0.2"></path></g><g transform="translate(-118,-22) scale(1,1)"><path fill="#C0C0C0" stroke="none" d="M 383 49 L 393 39 L 1110 39 L 1100 49" opacity="0.2"></path></g><g transform="translate(-118,-22) scale(1,1)"><path fill="#C0C0C0" stroke="none" d="M 1110 39 L 1100 49 L 1100 342 L 1110 332" opacity="0.2"></path></g><g transform="translate(-118,-22) scale(1,1)"><path fill="#ffffff" stroke="none" d="M 376 42 L 1093 42 L 1093 335 L 376 335"></path></g><g transform="translate(-118,-22) scale(1,1)"><path fill="#ffffff" stroke="none" d="M 376 42 L 386 32 L 1103 32 L 1093 42"></path></g><g transform="translate(-118,-22) scale(1,1)"><path fill="#ffffff" stroke="none" d="M 1103 32 L 1093 42 L 1093 335 L 1103 325"></path></g><g transform="translate(-118,-22) scale(1,1)"><path fill="none" stroke="#000000" d="M 376 42 L 1093 42 L 1093 335 L 376 335 L 376 42" stroke-miterlimit="10"></path></g><g transform="translate(-118,-22) scale(1,1)"><path fill="none" stroke="#000000" d="M 376 42 L 386 32 L 1103 32 L 1093 42 L 376 42" stroke-miterlimit="10"></path></g><g transform="translate(-118,-22) scale(1,1)"><path fill="none" stroke="#000000" d="M 1103 32 L 1093 42 L 1093 335 L 1103 325 L 1103 32" stroke-miterlimit="10"></path></g><g transform="translate(-118,-22) scale(1,1)"><g><path fill="none" stroke="none"></path><text fill="#000000" stroke="none" font-family="Arial" font-size="13px" font-style="normal" font-weight="bold" text-decoration="none" x="716" y="61.5">Server</text></g></g><g transform="translate(-118,-22) scale(1,1)"><path fill="#C0C0C0" stroke="none" d="M 135 417 L 676 417 L 676 853 L 135 853" opacity="0.2"></path></g><g transform="translate(-118,-22) scale(1,1)"><path fill="#C0C0C0" stroke="none" d="M 135 417 L 145 407 L 686 407 L 676 417" opacity="0.2"></path></g><g transform="translate(-118,-22) scale(1,1)"><path fill="#C0C0C0" stroke="none" d="M 686 407 L 676 417 L 676 853 L 686 843" opacity="0.2"></path></g><g transform="translate(-118,-22) scale(1,1)"><path fill="#ffffff" stroke="none" d="M 128 410 L 669 410 L 669 846 L 128 846"></path></g><g transform="translate(-118,-22) scale(1,1)"><path fill="#ffffff" stroke="none" d="M 128 410 L 138 400 L 679 400 L 669 410"></path></g><g transform="translate(-118,-22) scale(1,1)"><path fill="#ffffff" stroke="none" d="M 679 400 L 669 410 L 669 846 L 679 836"></path></g><g transform="translate(-118,-22) scale(1,1)"><path fill="none" stroke="#000000" d="M 128 410 L 669 410 L 669 846 L 128 846 L 128 410" stroke-miterlimit="10"></path></g><g transform="translate(-118,-22) scale(1,1)"><path fill="none" stroke="#000000" d="M 128 410 L 138 400 L 679 400 L 669 410 L 128 410" stroke-miterlimit="10"></path></g><g transform="translate(-118,-22) scale(1,1)"><path fill="none" stroke="#000000" d="M 679 400 L 669 410 L 669 846 L 679 836 L 679 400" stroke-miterlimit="10"></path></g><g transform="translate(-118,-22) scale(1,1)"><g><path fill="none" stroke="none"></path><text fill="#000000" stroke="none" font-family="Arial" font-size="13px" font-style="normal" font-weight="bold" text-decoration="none" x="380.5" y="429.5">Phone</text></g></g><g transform="translate(-118,-22) scale(1,1)"><path fill="#C0C0C0" stroke="none" d="M 743 409 L 1108 409 L 1108 853 L 743 853" opacity="0.2"></path></g><g transform="translate(-118,-22) scale(1,1)"><path fill="#C0C0C0" stroke="none" d="M 743 409 L 753 399 L 1118 399 L 1108 409" opacity="0.2"></path></g><g transform="translate(-118,-22) scale(1,1)"><path fill="#C0C0C0" stroke="none" d="M 1118 399 L 1108 409 L 1108 853 L 1118 843" opacity="0.2"></path></g><g transform="translate(-118,-22) scale(1,1)"><path fill="#ffffff" stroke="none" d="M 736 402 L 1101 402 L 1101 846 L 736 846"></path></g><g transform="translate(-118,-22) scale(1,1)"><path fill="#ffffff" stroke="none" d="M 736 402 L 746 392 L 1111 392 L 1101 402"></path></g><g transform="translate(-118,-22) scale(1,1)"><path fill="#ffffff" stroke="none" d="M 1111 392 L 1101 402 L 1101 846 L 1111 836"></path></g><g transform="translate(-118,-22) scale(1,1)"><path fill="none" stroke="#000000" d="M 736 402 L 1101 402 L 1101 846 L 736 846 L 736 402" stroke-miterlimit="10"></path></g><g transform="translate(-118,-22) scale(1,1)"><path fill="none" stroke="#000000" d="M 736 402 L 746 392 L 1111 392 L 1101 402 L 736 402" stroke-miterlimit="10"></path></g><g transform="translate(-118,-22) scale(1,1)"><path fill="none" stroke="#000000" d="M 1111 392 L 1101 402 L 1101 846 L 1111 836 L 1111 392" stroke-miterlimit="10"></path></g><g transform="translate(-118,-22) scale(1,1)"><g><path fill="none" stroke="none"></path><text fill="#000000" stroke="none" font-family="Arial" font-size="13px" font-style="normal" font-weight="bold" text-decoration="none" x="900.5" y="421.5">Phone</text></g></g><g transform="translate(-118,-22) scale(1,1)"><path fill="none" stroke="#000000" d="M 681 621 L 735 620" stroke-miterlimit="10"></path></g><g transform="translate(-118,-22) scale(1,1)"><g><path fill="none" stroke="none"></path><text fill="#000000" stroke="none" font-family="Arial" font-size="13px" font-style="normal" font-weight="normal" text-decoration="none" x="691" y="612">+UDP</text></g></g><g transform="translate(-118,-22) scale(1,1)"><path fill="none" stroke="#000000" d="M 575 399 L 623 337" stroke-miterlimit="10"></path></g><g transform="translate(-118,-22) scale(1,1)"><g><path fill="none" stroke="none"></path><text fill="#000000" stroke="none" font-family="Arial" font-size="13px" font-style="normal" font-weight="normal" text-decoration="none" x="570" y="365">+TCP</text></g></g><g transform="translate(-118,-22) scale(1,1)"><path fill="none" stroke="#000000" d="M 805 337 L 828 391" stroke-miterlimit="10"></path></g><g transform="translate(-118,-22) scale(1,1)"><g><path fill="none" stroke="none"></path><text fill="#000000" stroke="none" font-family="Arial" font-size="13px" font-style="normal" font-weight="normal" text-decoration="none" x="823" y="357">+TCP</text></g></g><g transform="translate(-118,-22) scale(1,1)"><rect fill="#C0C0C0" stroke="none" x="161" y="471" width="405" height="343" opacity="0.2"></rect></g><g transform="translate(-118,-22) scale(1,1)"><rect fill="#ffffff" stroke="none" x="154" y="464" width="405" height="343"></rect></g><g transform="translate(-118,-22) scale(1,1)"><path fill="none" stroke="#000000" d="M 154 464 L 559 464 L 559 807 L 154 807 L 154 464 Z Z" stroke-miterlimit="10"></path></g><g transform="translate(-118,-22) scale(1,1)"><rect fill="#ffffff" stroke="none" x="144" y="471" width="20" height="10"></rect></g><g transform="translate(-118,-22) scale(1,1)"><path fill="none" stroke="#000000" d="M 144 471 L 164 471 L 164 481 L 144 481 L 144 471 Z Z" stroke-miterlimit="10"></path></g><g transform="translate(-118,-22) scale(1,1)"><rect fill="#ffffff" stroke="none" x="144" y="491" width="20" height="10"></rect></g><g transform="translate(-118,-22) scale(1,1)"><path fill="none" stroke="#000000" d="M 144 491 L 164 491 L 164 501 L 144 501 L 144 491 Z Z" stroke-miterlimit="10"></path></g><g transform="translate(-118,-22) scale(1,1)"><g><path fill="none" stroke="none"></path><text fill="#000000" stroke="none" font-family="Arial" font-size="13px" font-style="normal" font-weight="bold" text-decoration="none" x="329" y="483.5">VirusGame</text></g></g><g transform="translate(-118,-22) scale(1,1)"><rect fill="#ffffff" stroke="none" x="552" y="632" width="14" height="14"></rect></g><g transform="translate(-118,-22) scale(1,1)"><path fill="none" stroke="#000000" d="M 552 632 L 566 632 L 566 646 L 552 646 L 552 632 Z Z" stroke-miterlimit="10"></path></g><g transform="translate(-118,-22) scale(1,1)"><g><path fill="none" stroke="none"></path><text fill="#000000" stroke="none" font-family="Arial" font-size="13px" font-style="normal" font-weight="normal" text-decoration="none" x="539.5" y="630.5">B</text></g></g><g transform="translate(-118,-22) scale(1,1)"><rect fill="#ffffff" stroke="none" x="552" y="576" width="14" height="14"></rect></g><g transform="translate(-118,-22) scale(1,1)"><path fill="none" stroke="#000000" d="M 552 576 L 566 576 L 566 590 L 552 590 L 552 576 Z Z" stroke-miterlimit="10"></path></g><g transform="translate(-118,-22) scale(1,1)"><g><path fill="none" stroke="none"></path><text fill="#000000" stroke="none" font-family="Arial" font-size="13px" font-style="normal" font-weight="normal" text-decoration="none" x="539.5" y="574.5">A</text></g></g><g transform="translate(-118,-22) scale(1,1)"><path fill="#C0C0C0" stroke="none" d="M 613 578.5 C 613 572.1487248 618.1487248 567 624.5 567 C 630.8512752 567 636 572.1487248 636 578.5 C 636 584.8512752 630.8512752 590 624.5 590 C 618.1487248 590 613 584.8512752 613 578.5 Z" opacity="0.2"></path></g><g transform="translate(-118,-22) scale(1,1)"><path fill="none" stroke="#000000" d="M 619.6837889534662 582.182453972776 A 11.5 11.5 0 0 1 614.3162110465338 559.817546027224" stroke-miterlimit="10"></path></g><g transform="translate(-118,-22) scale(1,1)"><path fill="#ffffff" stroke="none" d="M 609 571.5 C 609 566.8055792 612.8055792 563 617.5 563 C 622.1944208 563 626 566.8055792 626 571.5 C 626 576.1944208 622.1944208 580 617.5 580 C 612.8055792 580 609 576.1944208 609 571.5 Z"></path></g><g transform="translate(-118,-22) scale(1,1)"><path fill="none" stroke="#000000" d="M 609 571.5 C 609 566.8055792 612.8055792 563 617.5 563 C 622.1944208 563 626 566.8055792 626 571.5 C 626 576.1944208 622.1944208 580 617.5 580 C 612.8055792 580 609 576.1944208 609 571.5 Z" stroke-miterlimit="10"></path></g><g transform="translate(-118,-22) scale(1,1)"><g><path fill="none" stroke="none"></path><text fill="#000000" stroke="none" font-family="Arial" font-size="13px" font-style="normal" font-weight="bold" text-decoration="none" x="576" y="602.5">ValidatedInput</text></g></g><g transform="translate(-118,-22) scale(1,1)"><path fill="none" stroke="#000000" d="M 567 583 L 606 573.64" stroke-miterlimit="10"></path></g><g transform="translate(-118,-22) scale(1,1)"><path fill="#C0C0C0" stroke="none" d="M 619 658.5 C 619 652.1487248 624.1487248 647 630.5 647 C 636.8512752 647 642 652.1487248 642 658.5 C 642 664.8512752 636.8512752 670 630.5 670 C 624.1487248 670 619 664.8512752 619 658.5 Z" opacity="0.2"></path></g><g transform="translate(-118,-22) scale(1,1)"><path fill="none" stroke="#000000" d="M 621.5736005522241 662.4111955822071 A 11.5 11.5 0 0 1 624.4263994477759 639.5888044177929" stroke-miterlimit="10"></path></g><g transform="translate(-118,-22) scale(1,1)"><path fill="#ffffff" stroke="none" d="M 615 651.5 C 615 646.8055792 618.8055792 643 623.5 643 C 628.1944208 643 632 646.8055792 632 651.5 C 632 656.1944208 628.1944208 660 623.5 660 C 618.8055792 660 615 656.1944208 615 651.5 Z"></path></g><g transform="translate(-118,-22) scale(1,1)"><path fill="none" stroke="#000000" d="M 615 651.5 C 615 646.8055792 618.8055792 643 623.5 643 C 628.1944208 643 632 646.8055792 632 651.5 C 632 656.1944208 628.1944208 660 623.5 660 C 618.8055792 660 615 656.1944208 615 651.5 Z" stroke-miterlimit="10"></path></g><g transform="translate(-118,-22) scale(1,1)"><g><path fill="none" stroke="none"></path><text fill="#000000" stroke="none" font-family="Arial" font-size="13px" font-style="normal" font-weight="bold" text-decoration="none" x="583.5" y="682.5">RealtimeInput</text></g></g><g transform="translate(-118,-22) scale(1,1)"><path fill="none" stroke="#000000" d="M 567 642 L 612 649.625" stroke-miterlimit="10"></path></g><g transform="translate(-118,-22) scale(1,1)"><rect fill="#C0C0C0" stroke="none" x="425" y="79" width="406" height="184" opacity="0.2"></rect></g><g transform="translate(-118,-22) scale(1,1)"><rect fill="#ffffff" stroke="none" x="418" y="72" width="406" height="184"></rect></g><g transform="translate(-118,-22) scale(1,1)"><path fill="none" stroke="#000000" d="M 418 72 L 824 72 L 824 256 L 418 256 L 418 72 Z Z" stroke-miterlimit="10"></path></g><g transform="translate(-118,-22) scale(1,1)"><rect fill="#ffffff" stroke="none" x="408" y="79" width="20" height="10"></rect></g><g transform="translate(-118,-22) scale(1,1)"><path fill="none" stroke="#000000" d="M 408 79 L 428 79 L 428 89 L 408 89 L 408 79 Z Z" stroke-miterlimit="10"></path></g><g transform="translate(-118,-22) scale(1,1)"><rect fill="#ffffff" stroke="none" x="408" y="99" width="20" height="10"></rect></g><g transform="translate(-118,-22) scale(1,1)"><path fill="none" stroke="#000000" d="M 408 99 L 428 99 L 428 109 L 408 109 L 408 99 Z Z" stroke-miterlimit="10"></path></g><g transform="translate(-118,-22) scale(1,1)"><g><path fill="none" stroke="none"></path><text fill="#000000" stroke="none" font-family="Arial" font-size="13px" font-style="normal" font-weight="bold" text-decoration="none" x="574.5" y="91.5">VirusGameServer</text></g></g><g transform="translate(-118,-22) scale(1,1)"><rect fill="#C0C0C0" stroke="none" x="175" y="735" width="160" height="56" opacity="0.2"></rect></g><g transform="translate(-118,-22) scale(1,1)"><rect fill="#ffffff" stroke="none" x="168" y="728" width="160" height="56"></rect></g><g transform="translate(-118,-22) scale(1,1)"><path fill="none" stroke="#000000" d="M 168 728 L 328 728 L 328 784 L 168 784 L 168 728 Z Z" stroke-miterlimit="10"></path></g><g transform="translate(-118,-22) scale(1,1)"><rect fill="#ffffff" stroke="none" x="168" y="728" width="160" height="56"></rect></g><g transform="translate(-118,-22) scale(1,1)"><path fill="none" stroke="#000000" d="M 168 728 L 328 728 L 328 784 L 168 784 L 168 728 Z Z" stroke-miterlimit="10"></path></g><g transform="translate(-118,-22) scale(1,1)"><g><path fill="none" stroke="none"></path><text fill="#000000" stroke="none" font-family="Arial" font-size="13px" font-style="normal" font-weight="bold" text-decoration="none" x="224" y="747.5">OpenGL</text></g></g><g transform="translate(-118,-22) scale(1,1)"><rect fill="#C0C0C0" stroke="none" x="359" y="575" width="160" height="56" opacity="0.2"></rect></g><g transform="translate(-118,-22) scale(1,1)"><rect fill="#ffffff" stroke="none" x="352" y="568" width="160" height="56"></rect></g><g transform="translate(-118,-22) scale(1,1)"><path fill="none" stroke="#000000" d="M 352 568 L 512 568 L 512 624 L 352 624 L 352 568 Z Z" stroke-miterlimit="10"></path></g><g transform="translate(-118,-22) scale(1,1)"><rect fill="#ffffff" stroke="none" x="352" y="568" width="160" height="56"></rect></g><g transform="translate(-118,-22) scale(1,1)"><path fill="none" stroke="#000000" d="M 352 568 L 512 568 L 512 624 L 352 624 L 352 568 Z Z" stroke-miterlimit="10"></path></g><g transform="translate(-118,-22) scale(1,1)"><g><path fill="none" stroke="none"></path><text fill="#000000" stroke="none" font-family="Arial" font-size="13px" font-style="normal" font-weight="bold" text-decoration="none" x="399" y="587.5">GameLogic</text></g></g><g transform="translate(-118,-22) scale(1,1)"><rect fill="#C0C0C0" stroke="none" x="631" y="183" width="160" height="56" opacity="0.2"></rect></g><g transform="translate(-118,-22) scale(1,1)"><rect fill="#ffffff" stroke="none" x="624" y="176" width="160" height="56"></rect></g><g transform="translate(-118,-22) scale(1,1)"><path fill="none" stroke="#000000" d="M 624 176 L 784 176 L 784 232 L 624 232 L 624 176 Z Z" stroke-miterlimit="10"></path></g><g transform="translate(-118,-22) scale(1,1)"><rect fill="#ffffff" stroke="none" x="624" y="176" width="160" height="56"></rect></g><g transform="translate(-118,-22) scale(1,1)"><path fill="none" stroke="#000000" d="M 624 176 L 784 176 L 784 232 L 624 232 L 624 176 Z Z" stroke-miterlimit="10"></path></g><g transform="translate(-118,-22) scale(1,1)"><g><path fill="none" stroke="none"></path><text fill="#000000" stroke="none" font-family="Arial" font-size="13px" font-style="normal" font-weight="bold" text-decoration="none" x="675.5" y="195.5">Validation</text></g></g><g transform="translate(-118,-22) scale(1,1)"><rect fill="#C0C0C0" stroke="none" x="631" y="103" width="160" height="56" opacity="0.2"></rect></g><g transform="translate(-118,-22) scale(1,1)"><rect fill="#ffffff" stroke="none" x="624" y="96" width="160" height="56"></rect></g><g transform="translate(-118,-22) scale(1,1)"><path fill="none" stroke="#000000" d="M 624 96 L 784 96 L 784 152 L 624 152 L 624 96 Z Z" stroke-miterlimit="10"></path></g><g transform="translate(-118,-22) scale(1,1)"><rect fill="#ffffff" stroke="none" x="624" y="96" width="160" height="56"></rect></g><g transform="translate(-118,-22) scale(1,1)"><path fill="none" stroke="#000000" d="M 624 96 L 784 96 L 784 152 L 624 152 L 624 96 Z Z" stroke-miterlimit="10"></path></g><g transform="translate(-118,-22) scale(1,1)"><g><path fill="none" stroke="none"></path><text fill="#000000" stroke="none" font-family="Arial" font-size="13px" font-style="normal" font-weight="bold" text-decoration="none" x="671" y="115.5">GameLogic</text></g></g><g transform="translate(-118,-22) scale(1,1)"><rect fill="#C0C0C0" stroke="none" x="175" y="655" width="160" height="56" opacity="0.2"></rect></g><g transform="translate(-118,-22) scale(1,1)"><rect fill="#ffffff" stroke="none" x="168" y="648" width="160" height="56"></rect></g><g transform="translate(-118,-22) scale(1,1)"><path fill="none" stroke="#000000" d="M 168 648 L 328 648 L 328 704 L 168 704 L 168 648 Z Z" stroke-miterlimit="10"></path></g><g transform="translate(-118,-22) scale(1,1)"><rect fill="#ffffff" stroke="none" x="168" y="648" width="160" height="56"></rect></g><g transform="translate(-118,-22) scale(1,1)"><path fill="none" stroke="#000000" d="M 168 648 L 328 648 L 328 704 L 168 704 L 168 648 Z Z" stroke-miterlimit="10"></path></g><g transform="translate(-118,-22) scale(1,1)"><g><path fill="none" stroke="none"></path><text fill="#000000" stroke="none" font-family="Arial" font-size="13px" font-style="normal" font-weight="bold" text-decoration="none" x="211" y="667.5">Visualization</text></g></g><g transform="translate(-118,-22) scale(1,1)"><path fill="none" stroke="#000000" d="M 248 705 L 248 727" stroke-miterlimit="10"></path></g><g transform="translate(-118,-22) scale(1,1)"><rect fill="#C0C0C0" stroke="none" x="175" y="575" width="160" height="56" opacity="0.2"></rect></g><g transform="translate(-118,-22) scale(1,1)"><rect fill="#ffffff" stroke="none" x="168" y="568" width="160" height="56"></rect></g><g transform="translate(-118,-22) scale(1,1)"><path fill="none" stroke="#000000" d="M 168 568 L 328 568 L 328 624 L 168 624 L 168 568 Z Z" stroke-miterlimit="10"></path></g><g transform="translate(-118,-22) scale(1,1)"><rect fill="#ffffff" stroke="none" x="168" y="568" width="160" height="56"></rect></g><g transform="translate(-118,-22) scale(1,1)"><path fill="none" stroke="#000000" d="M 168 568 L 328 568 L 328 624 L 168 624 L 168 568 Z Z" stroke-miterlimit="10"></path></g><g transform="translate(-118,-22) scale(1,1)"><g><path fill="none" stroke="none"></path><text fill="#000000" stroke="none" font-family="Arial" font-size="13px" font-style="normal" font-weight="bold" text-decoration="none" x="188" y="587.5">ValidatedGameState</text></g></g><g transform="translate(-118,-22) scale(1,1)"><rect fill="#C0C0C0" stroke="none" x="359" y="655" width="160" height="56" opacity="0.2"></rect></g><g transform="translate(-118,-22) scale(1,1)"><rect fill="#ffffff" stroke="none" x="352" y="648" width="160" height="56"></rect></g><g transform="translate(-118,-22) scale(1,1)"><path fill="none" stroke="#000000" d="M 352 648 L 512 648 L 512 704 L 352 704 L 352 648 Z Z" stroke-miterlimit="10"></path></g><g transform="translate(-118,-22) scale(1,1)"><rect fill="#ffffff" stroke="none" x="352" y="648" width="160" height="56"></rect></g><g transform="translate(-118,-22) scale(1,1)"><path fill="none" stroke="#000000" d="M 352 648 L 512 648 L 512 704 L 352 704 L 352 648 Z Z" stroke-miterlimit="10"></path></g><g transform="translate(-118,-22) scale(1,1)"><g><path fill="none" stroke="none"></path><text fill="#000000" stroke="none" font-family="Arial" font-size="13px" font-style="normal" font-weight="bold" text-decoration="none" x="365" y="667.5">UnvalidatedGameState</text></g></g><g transform="translate(-118,-22) scale(1,1)"><path fill="none" stroke="#000000" d="M 329 676 L 351 676" stroke-miterlimit="10"></path></g><g transform="translate(-118,-22) scale(1,1)"><path fill="none" stroke="#000000" d="M 513 623 L 551 636" stroke-miterlimit="10" stroke-dasharray="3"></path></g><g transform="translate(-118,-22) scale(1,1)"><path fill="none" stroke="#000000" d="M 540.0218740265058 636.6933614570278 L 551 636 L 542.7470120913443 628.7275732674998" stroke-miterlimit="10"></path></g><g transform="translate(-118,-22) scale(1,1)"><path fill="none" stroke="#000000" d="M 432 625 L 432 647" stroke-miterlimit="10"></path></g><g transform="translate(-118,-22) scale(1,1)"><path fill="none" stroke="#000000" d="M 248 625 L 248 647" stroke-miterlimit="10"></path></g><g transform="translate(-118,-22) scale(1,1)"><path fill="none" stroke="#000000" d="M 329 596 L 351 596" stroke-miterlimit="10"></path></g><g transform="translate(-118,-22) scale(1,1)"><path fill="none" stroke="#000000" d="M 513 588 L 551 584" stroke-miterlimit="10" stroke-dasharray="3"></path></g><g transform="translate(-118,-22) scale(1,1)"><path fill="none" stroke="#000000" d="M 541.333836897039 589.2502657901247 L 551 584 L 540.4524919786121 580.8774890650699" stroke-miterlimit="10"></path></g><g transform="translate(-118,-22) scale(1,1)"><rect fill="#C0C0C0" stroke="none" x="447" y="103" width="160" height="56" opacity="0.2"></rect></g><g transform="translate(-118,-22) scale(1,1)"><rect fill="#ffffff" stroke="none" x="440" y="96" width="160" height="56"></rect></g><g transform="translate(-118,-22) scale(1,1)"><path fill="none" stroke="#000000" d="M 440 96 L 600 96 L 600 152 L 440 152 L 440 96 Z Z" stroke-miterlimit="10"></path></g><g transform="translate(-118,-22) scale(1,1)"><rect fill="#ffffff" stroke="none" x="440" y="96" width="160" height="56"></rect></g><g transform="translate(-118,-22) scale(1,1)"><path fill="none" stroke="#000000" d="M 440 96 L 600 96 L 600 152 L 440 152 L 440 96 Z Z" stroke-miterlimit="10"></path></g><g transform="translate(-118,-22) scale(1,1)"><g><path fill="none" stroke="none"></path><text fill="#000000" stroke="none" font-family="Arial" font-size="13px" font-style="normal" font-weight="bold" text-decoration="none" x="460" y="115.5">ValidatedGameState</text></g></g><g transform="translate(-118,-22) scale(1,1)"><path fill="none" stroke="#000000" d="M 601 124 L 623 124" stroke-miterlimit="10"></path></g><g transform="translate(-118,-22) scale(1,1)"><path fill="none" stroke="#000000" d="M 704 153 L 704 175" stroke-miterlimit="10"></path></g><g transform="translate(-118,-22) scale(1,1)"><rect fill="#ffffff" stroke="none" x="640" y="249" width="14" height="14"></rect></g><g transform="translate(-118,-22) scale(1,1)"><path fill="none" stroke="#000000" d="M 640 249 L 654 249 L 654 263 L 640 263 L 640 249 Z Z" stroke-miterlimit="10"></path></g><g transform="translate(-118,-22) scale(1,1)"><g><path fill="none" stroke="none"></path><text fill="#000000" stroke="none" font-family="Arial" font-size="13px" font-style="normal" font-weight="normal" text-decoration="none" x="627.5" y="247.5">B</text></g></g><g transform="translate(-118,-22) scale(1,1)"><rect fill="#ffffff" stroke="none" x="736" y="249" width="14" height="14"></rect></g><g transform="translate(-118,-22) scale(1,1)"><path fill="none" stroke="#000000" d="M 736 249 L 750 249 L 750 263 L 736 263 L 736 249 Z Z" stroke-miterlimit="10"></path></g><g transform="translate(-118,-22) scale(1,1)"><g><path fill="none" stroke="none"></path><text fill="#000000" stroke="none" font-family="Arial" font-size="13px" font-style="normal" font-weight="normal" text-decoration="none" x="723.5" y="247.5">A</text></g></g><g transform="translate(-118,-22) scale(1,1)"><path fill="#C0C0C0" stroke="none" d="M 738.5 290.5 C 738.5 284.1487248 743.6487248 279 750 279 C 756.3512752 279 761.5 284.1487248 761.5 290.5 C 761.5 296.8512752 756.3512752 302 750 302 C 743.6487248 302 738.5 296.8512752 738.5 290.5 Z" opacity="0.2"></path></g><g transform="translate(-118,-22) scale(1,1)"><path fill="#ffffff" stroke="none" d="M 731.5 283.5 C 731.5 277.1487248 736.6487248 272 743 272 C 749.3512752 272 754.5 277.1487248 754.5 283.5 C 754.5 289.8512752 749.3512752 295 743 295 C 736.6487248 295 731.5 289.8512752 731.5 283.5 Z"></path></g><g transform="translate(-118,-22) scale(1,1)"><path fill="none" stroke="#000000" d="M 731.5 283.5 C 731.5 277.1487248 736.6487248 272 743 272 C 749.3512752 272 754.5 277.1487248 754.5 283.5 C 754.5 289.8512752 749.3512752 295 743 295 C 736.6487248 295 731.5 289.8512752 731.5 283.5 Z" stroke-miterlimit="10"></path></g><g transform="translate(-118,-22) scale(1,1)"><g><path fill="none" stroke="none"></path><text fill="#000000" stroke="none" font-family="Arial" font-size="13px" font-style="normal" font-weight="bold" text-decoration="none" x="702.5" y="314.5">ValidatedData</text></g></g><g transform="translate(-118,-22) scale(1,1)"><path fill="none" stroke="#000000" d="M 743 264 L 743 272" stroke-miterlimit="10"></path></g><g transform="translate(-118,-22) scale(1,1)"><path fill="#C0C0C0" stroke="none" d="M 642 290.5 C 642 284.1487248 647.1487248 279 653.5 279 C 659.8512752 279 665 284.1487248 665 290.5 C 665 296.8512752 659.8512752 302 653.5 302 C 647.1487248 302 642 296.8512752 642 290.5 Z" opacity="0.2"></path></g><g transform="translate(-118,-22) scale(1,1)"><path fill="none" stroke="#000000" d="M 634.5397237801839 282.04497698168205 A 11.5 11.5 0 0 1 657.4602762198161 283.95502301831795" stroke-miterlimit="10"></path></g><g transform="translate(-118,-22) scale(1,1)"><path fill="#ffffff" stroke="none" d="M 638 283.5 C 638 278.8055792 641.8055792 275 646.5 275 C 651.1944208 275 655 278.8055792 655 283.5 C 655 288.1944208 651.1944208 292 646.5 292 C 641.8055792 292 638 288.1944208 638 283.5 Z"></path></g><g transform="translate(-118,-22) scale(1,1)"><path fill="none" stroke="#000000" d="M 638 283.5 C 638 278.8055792 641.8055792 275 646.5 275 C 651.1944208 275 655 278.8055792 655 283.5 C 655 288.1944208 651.1944208 292 646.5 292 C 641.8055792 292 638 288.1944208 638 283.5 Z" stroke-miterlimit="10"></path></g><g transform="translate(-118,-22) scale(1,1)"><g><path fill="none" stroke="none"></path><text fill="#000000" stroke="none" font-family="Arial" font-size="13px" font-style="normal" font-weight="bold" text-decoration="none" x="599" y="314.5">UnvalidatedData</text></g></g><g transform="translate(-118,-22) scale(1,1)"><path fill="none" stroke="#000000" d="M 647 264 L 646.9166666666666 272" stroke-miterlimit="10"></path></g><g transform="translate(-118,-22) scale(1,1)"><rect fill="#C0C0C0" stroke="none" x="873" y="79" width="189" height="184" opacity="0.2"></rect></g><g transform="translate(-118,-22) scale(1,1)"><rect fill="#ffffff" stroke="none" x="866" y="72" width="189" height="184"></rect></g><g transform="translate(-118,-22) scale(1,1)"><path fill="none" stroke="#000000" d="M 866 72 L 1055 72 L 1055 256 L 866 256 L 866 72 Z Z" stroke-miterlimit="10"></path></g><g transform="translate(-118,-22) scale(1,1)"><rect fill="#ffffff" stroke="none" x="856" y="79" width="20" height="10"></rect></g><g transform="translate(-118,-22) scale(1,1)"><path fill="none" stroke="#000000" d="M 856 79 L 876 79 L 876 89 L 856 89 L 856 79 Z Z" stroke-miterlimit="10"></path></g><g transform="translate(-118,-22) scale(1,1)"><rect fill="#ffffff" stroke="none" x="856" y="99" width="20" height="10"></rect></g><g transform="translate(-118,-22) scale(1,1)"><path fill="none" stroke="#000000" d="M 856 99 L 876 99 L 876 109 L 856 109 L 856 99 Z Z" stroke-miterlimit="10"></path></g><g transform="translate(-118,-22) scale(1,1)"><g><path fill="none" stroke="none"></path><text fill="#000000" stroke="none" font-family="Arial" font-size="13px" font-style="normal" font-weight="bold" text-decoration="none" x="891.5" y="91.5">GameManagementServer</text></g></g><g transform="translate(-118,-22) scale(1,1)"><rect fill="#C0C0C0" stroke="none" x="865" y="447" width="222" height="343" opacity="0.2"></rect></g><g transform="translate(-118,-22) scale(1,1)"><rect fill="#ffffff" stroke="none" x="858" y="440" width="222" height="343"></rect></g><g transform="translate(-118,-22) scale(1,1)"><path fill="none" stroke="#000000" d="M 858 440 L 1080 440 L 1080 783 L 858 783 L 858 440 Z Z" stroke-miterlimit="10"></path></g><g transform="translate(-118,-22) scale(1,1)"><rect fill="#ffffff" stroke="none" x="848" y="447" width="20" height="10"></rect></g><g transform="translate(-118,-22) scale(1,1)"><path fill="none" stroke="#000000" d="M 848 447 L 868 447 L 868 457 L 848 457 L 848 447 Z Z" stroke-miterlimit="10"></path></g><g transform="translate(-118,-22) scale(1,1)"><rect fill="#ffffff" stroke="none" x="848" y="467" width="20" height="10"></rect></g><g transform="translate(-118,-22) scale(1,1)"><path fill="none" stroke="#000000" d="M 848 467 L 868 467 L 868 477 L 848 477 L 848 467 Z Z" stroke-miterlimit="10"></path></g><g transform="translate(-118,-22) scale(1,1)"><g><path fill="none" stroke="none"></path><text fill="#000000" stroke="none" font-family="Arial" font-size="13px" font-style="normal" font-weight="bold" text-decoration="none" x="941.5" y="459.5">VirusGame</text></g></g><g transform="translate(-118,-22) scale(1,1)"><path fill="#C0C0C0" stroke="none" d="M 774 642.5 C 774 636.1487248 779.1487248 631 785.5 631 C 791.8512752 631 797 636.1487248 797 642.5 C 797 648.8512752 791.8512752 654 785.5 654 C 779.1487248 654 774 648.8512752 774 642.5 Z" opacity="0.2"></path></g><g transform="translate(-118,-22) scale(1,1)"><path fill="#ffffff" stroke="none" d="M 767 635.5 C 767 629.1487248 772.1487248 624 778.5 624 C 784.8512752 624 790 629.1487248 790 635.5 C 790 641.8512752 784.8512752 647 778.5 647 C 772.1487248 647 767 641.8512752 767 635.5 Z"></path></g><g transform="translate(-118,-22) scale(1,1)"><path fill="none" stroke="#000000" d="M 767 635.5 C 767 629.1487248 772.1487248 624 778.5 624 C 784.8512752 624 790 629.1487248 790 635.5 C 790 641.8512752 784.8512752 647 778.5 647 C 772.1487248 647 767 641.8512752 767 635.5 Z" stroke-miterlimit="10"></path></g><g transform="translate(-118,-22) scale(1,1)"><g><path fill="none" stroke="none"></path><text fill="#000000" stroke="none" font-family="Arial" font-size="13px" font-style="normal" font-weight="bold" text-decoration="none" x="759" y="666.5">Output</text></g></g><g transform="translate(-118,-22) scale(1,1)"><path fill="none" stroke="#000000" d="M 847 634 L 790 637" stroke-miterlimit="10"></path></g><g transform="translate(-118,-22) scale(1,1)"><path fill="none" stroke="#000000" d="M 743 652 L 635 652.9591836734694" stroke-miterlimit="10"></path></g><g transform="translate(-118,-22) scale(1,1)"><path fill="none" stroke="#000000" d="M 732 321 L 627.0833333333334 560" stroke-miterlimit="10"></path></g><g transform="translate(-118,-22) scale(1,1)"><rect fill="#C0C0C0" stroke="none" x="359" y="495" width="159" height="55" opacity="0.2"></rect></g><g transform="translate(-118,-22) scale(1,1)"><rect fill="#ffffff" stroke="none" x="352" y="488" width="159" height="55"></rect></g><g transform="translate(-118,-22) scale(1,1)"><path fill="none" stroke="#000000" d="M 352 488 L 511 488 L 511 543 L 352 543 L 352 488 Z Z" stroke-miterlimit="10"></path></g><g transform="translate(-118,-22) scale(1,1)"><rect fill="#ffffff" stroke="none" x="352" y="488" width="159" height="55"></rect></g><g transform="translate(-118,-22) scale(1,1)"><path fill="none" stroke="#000000" d="M 352 488 L 511 488 L 511 543 L 352 543 L 352 488 Z Z" stroke-miterlimit="10"></path></g><g transform="translate(-118,-22) scale(1,1)"><g><path fill="none" stroke="none"></path><text fill="#000000" stroke="none" font-family="Arial" font-size="13px" font-style="normal" font-weight="bold" text-decoration="none" x="403.5" y="507.5">UserInput</text></g></g><g transform="translate(-118,-22) scale(1,1)"><path fill="none" stroke="#000000" d="M 432 567 L 431 544" stroke-miterlimit="10"></path></g><g transform="translate(-118,-22) scale(1,1)"><rect fill="#ffffff" stroke="none" x="552" y="504" width="14" height="14"></rect></g><g transform="translate(-118,-22) scale(1,1)"><path fill="none" stroke="#000000" d="M 552 504 L 566 504 L 566 518 L 552 518 L 552 504 Z Z" stroke-miterlimit="10"></path></g><g transform="translate(-118,-22) scale(1,1)"><g><path fill="none" stroke="none"></path><text fill="#000000" stroke="none" font-family="Arial" font-size="13px" font-style="normal" font-weight="normal" text-decoration="none" x="516.5" y="502.5">C: CType</text></g></g><g transform="translate(-118,-22) scale(1,1)"><path fill="#C0C0C0" stroke="none" d="M 605 514.5 C 605 508.1487248 610.1487248 503 616.5 503 C 622.8512752 503 628 508.1487248 628 514.5 C 628 520.8512752 622.8512752 526 616.5 526 C 610.1487248 526 605 520.8512752 605 514.5 Z" opacity="0.2"></path></g><g transform="translate(-118,-22) scale(1,1)"><path fill="#ffffff" stroke="none" d="M 598 507.5 C 598 501.1487248 603.1487248 496 609.5 496 C 615.8512752 496 621 501.1487248 621 507.5 C 621 513.8512752 615.8512752 519 609.5 519 C 603.1487248 519 598 513.8512752 598 507.5 Z"></path></g><g transform="translate(-118,-22) scale(1,1)"><path fill="none" stroke="#000000" d="M 598 507.5 C 598 501.1487248 603.1487248 496 609.5 496 C 615.8512752 496 621 501.1487248 621 507.5 C 621 513.8512752 615.8512752 519 609.5 519 C 603.1487248 519 598 513.8512752 598 507.5 Z" stroke-miterlimit="10"></path></g><g transform="translate(-118,-22) scale(1,1)"><g><path fill="none" stroke="none"></path><text fill="#000000" stroke="none" font-family="Arial" font-size="13px" font-style="normal" font-weight="bold" text-decoration="none" x="590" y="538.5">Output</text></g></g><g transform="translate(-118,-22) scale(1,1)"><path fill="none" stroke="#000000" d="M 567 512 L 598 510.38461538461536" stroke-miterlimit="10"></path></g><g transform="translate(-118,-22) scale(1,1)"><path fill="none" stroke="#000000" d="M 613 495 L 644.7368421052631 295" stroke-miterlimit="10"></path></g><g transform="translate(-118,-22) scale(1,1)"><path fill="#C0C0C0" stroke="none" d="M 787 570.5 C 787 564.1487248 792.1487248 559 798.5 559 C 804.8512752 559 810 564.1487248 810 570.5 C 810 576.8512752 804.8512752 582 798.5 582 C 792.1487248 582 787 576.8512752 787 570.5 Z" opacity="0.2"></path></g><g transform="translate(-118,-22) scale(1,1)"><path fill="none" stroke="#000000" d="M 795.8864320756595 552.5897751431602 A 11.5 11.5 0 0 1 786.1135679243405 573.4102248568398" stroke-miterlimit="10"></path></g><g transform="translate(-118,-22) scale(1,1)"><path fill="#ffffff" stroke="none" d="M 783 563.5 C 783 558.8055792 786.8055792 555 791.5 555 C 796.1944208 555 800 558.8055792 800 563.5 C 800 568.1944208 796.1944208 572 791.5 572 C 786.8055792 572 783 568.1944208 783 563.5 Z"></path></g><g transform="translate(-118,-22) scale(1,1)"><path fill="none" stroke="#000000" d="M 783 563.5 C 783 558.8055792 786.8055792 555 791.5 555 C 796.1944208 555 800 558.8055792 800 563.5 C 800 568.1944208 796.1944208 572 791.5 572 C 786.8055792 572 783 568.1944208 783 563.5 Z" stroke-miterlimit="10"></path></g><g transform="translate(-118,-22) scale(1,1)"><g><path fill="none" stroke="none"></path><text fill="#000000" stroke="none" font-family="Arial" font-size="13px" font-style="normal" font-weight="bold" text-decoration="none" x="751.5" y="594.5">RealtimeInput</text></g></g><g transform="translate(-118,-22) scale(1,1)"><path fill="none" stroke="#000000" d="M 847 587 L 803 568.6326530612245" stroke-miterlimit="10"></path></g><g transform="translate(-118,-22) scale(1,1)"><path fill="none" stroke="#000000" d="M 636 528 L 780 562.5416666666666" stroke-miterlimit="10"></path></g></g></svg>